<svg width="119" height="40" viewBox="0 0 119 40" fill="none" xmlns="http://www.w3.org/2000/svg">
<path d="M103.127 0.759494C114.114 0.759494 118.418 7.8481 118.418 20.2532C118.418 33.2658 111.025 40 95.5823 39.9494C82.519 39.8987 79.8861 27.7468 84.8987 17.5696L86.7721 13.7722C87.6329 12 86.8734 11.2405 84.5949 10.8354C81.7595 10.3291 80.443 8.40506 80.443 6.07595C80.443 3.44304 82.2152 0.759494 85.5569 0.759494H103.127ZM111.886 13.2152C113.911 8.3038 110.57 5.77215 106.722 6.53165L94.0633 8.96203C89.7595 9.77215 88.2911 12.0506 89.2532 15.4937L94.4683 33.8228C95.9367 39.038 101.557 38.0759 103.127 34.3291L111.886 13.2152Z" fill="black"/>
<path d="M58.3849 6.88608C59.3975 4 58.8912 2.83544 57.5241 2.83544C57.0684 2.83544 56.5115 3.08861 56.0051 3.64557L50.3342 9.97468C45.676 15.1392 38.1824 12.2025 38.1824 6.37975C38.1824 3.79747 39.8532 0.759494 45.1191 0.759494H62.4355C71.6001 0.759494 77.1697 5.82279 77.1697 12.8608C77.1697 16 74.7393 18.7848 71.4988 18.8861C66.8912 19.038 65.4229 15.6962 65.4229 8.70886V6.48101C65.4229 4.25316 64.9165 2.58228 63.195 2.58228C61.8279 2.58228 61.271 3.89874 61.2203 7.08861L60.6634 31.8481C60.5621 37.2152 59.5494 40 54.6887 40C49.271 40 48.157 36.1013 50.233 30.5823L58.3849 6.88608Z" fill="black"/>
<path d="M17.9241 40C6.17722 40 0 33.1646 0 19.8987C0 6.63291 6.17722 0 17.9241 0C29.7215 0 35.8987 6.63291 35.8987 19.8987C35.8987 33.1646 29.7215 40 17.9241 40ZM32.1519 19.443C33.8734 17.3671 33.3671 15.0886 30.9367 14.1266L11.7468 6.43038C7.6962 4.81013 4.50633 7.44304 5.97468 12.2025L12.8101 34.0253C13.6203 36.6582 16.8608 37.8734 18.7848 35.5949L32.1519 19.443Z" fill="black"/>
</svg>
